<svg width="34" height="44" viewBox="0 0 34 44" fill="none" xmlns="http://www.w3.org/2000/svg">
<g filter="url(#filter0_d_86_91)">
<rect x="4" width="26" height="36" rx="5" fill="#1E1122"/>
<path d="M19.648 13.272H24.68V13.76H19.648V13.272ZM19.648 11.992H24.68V12.488H19.648V11.992ZM19.328 14.552H24.984V15.08H19.328V14.552ZM24.856 14.552H25.464C25.464 14.552 25.456 14.728 25.448 14.816C25.328 16.504 25.216 17.16 24.992 17.408C24.848 17.56 24.696 17.616 24.472 17.632C24.264 17.648 23.856 17.648 23.448 17.624C23.44 17.464 23.376 17.224 23.288 17.064C23.68 17.112 24.056 17.112 24.2 17.112C24.344 17.112 24.416 17.096 24.48 17.032C24.648 16.864 24.752 16.256 24.856 14.648V14.552ZM21.72 15.648L22.2 15.544C22.424 15.984 22.632 16.584 22.696 16.952L22.2 17.088C22.136 16.72 21.936 16.112 21.72 15.648ZM23.016 15.528L23.456 15.352C23.744 15.68 24.04 16.136 24.168 16.44L23.704 16.64C23.584 16.336 23.288 15.864 23.016 15.528ZM20.344 15.704L20.856 15.616C21 16.128 21.112 16.776 21.136 17.216L20.584 17.304C20.584 16.872 20.472 16.216 20.344 15.704ZM19.192 15.424L19.72 15.568C19.568 16.32 19.32 17.104 18.776 17.576L18.288 17.264C18.792 16.84 19.064 16.12 19.192 15.424ZM21.784 10.96H22.376V14.768H21.784V10.96ZM19.328 10.672H24.96V11.2H19.912V14.8H19.328V10.672ZM19.568 23.328C19.568 24.576 19.456 26.392 18.744 27.6C18.648 27.504 18.392 27.336 18.256 27.272C18.928 26.128 18.984 24.504 18.984 23.328V20.968H19.568V23.328ZM25.544 20.968V21.504H19.28V20.968H25.544ZM22.536 20.288V21.312H21.92V20.288H22.536ZM25.344 22.328V24.344H19.352V23.84H24.768V22.832H19.352V22.328H25.344ZM23.336 26.824C23.336 27.048 23.392 27.096 23.704 27.096C23.848 27.096 24.6 27.096 24.792 27.096C25.048 27.096 25.104 26.968 25.128 26.24C25.248 26.336 25.48 26.424 25.64 26.456C25.576 27.36 25.408 27.6 24.848 27.6C24.696 27.6 23.784 27.6 23.64 27.6C22.936 27.6 22.76 27.432 22.76 26.824V24.528H23.336V26.824ZM25.368 25.248C24.776 25.56 23.928 25.84 23.192 26.024C23.16 25.912 23.08 25.728 23.008 25.608C23.696 25.408 24.488 25.112 24.912 24.84L25.368 25.248ZM19.424 27.056C20.176 26.968 21.328 26.808 22.456 26.64L22.48 27.136C21.416 27.312 20.296 27.48 19.496 27.6L19.424 27.056ZM20.784 24.52V27.224H20.216V24.52H20.784ZM22.376 25.272V25.776H20.48V25.272H22.376ZM23.376 21.4V24.08H22.808V21.4H23.376ZM21.416 21.4V24.08H20.856V21.4H21.416Z" fill="white"/>
<path d="M12.056 4.712C12.04 4.896 12.024 5.168 12.016 5.36C11.912 8.624 11.032 10.12 9.456 11.216L8.872 10.744C9.128 10.608 9.448 10.384 9.688 10.16C10.688 9.256 11.344 7.904 11.36 5.376C11.36 5.192 11.344 4.896 11.312 4.712H12.056ZM14.84 6.376C14.816 6.512 14.8 6.656 14.792 6.76C14.768 7.536 14.664 9.856 14.304 10.624C14.144 10.968 13.888 11.112 13.448 11.112C13.048 11.112 12.584 11.088 12.168 11.056L12.088 10.392C12.52 10.448 12.936 10.488 13.28 10.488C13.504 10.488 13.656 10.416 13.744 10.224C14.048 9.608 14.152 7.64 14.152 6.784H9.936C9.616 6.784 9.296 6.792 9.008 6.816V6.144C9.288 6.168 9.616 6.184 9.928 6.184H13.88C14.096 6.184 14.248 6.168 14.384 6.144L14.84 6.376ZM15.008 15.664C14.968 15.744 14.912 15.96 14.904 16.04C14.76 16.984 14.592 18.128 14.008 19.032C13.36 20.048 12.272 20.864 10.984 21.28L10.44 20.736C11.616 20.416 12.76 19.72 13.408 18.696C13.864 17.992 14.088 16.968 14.168 16.024C13.72 16.024 10.328 16.024 9.76 16.024C9.76 16.248 9.76 17.368 9.76 17.624C9.76 17.736 9.76 17.936 9.776 18.136H9.056C9.072 17.944 9.08 17.776 9.08 17.624C9.08 17.368 9.08 16.256 9.08 15.912C9.08 15.728 9.072 15.552 9.056 15.384C9.264 15.4 9.56 15.4 9.904 15.4C10.176 15.4 13.56 15.4 14.016 15.4C14.184 15.4 14.376 15.392 14.52 15.36L15.008 15.664ZM8.688 28.112C10.072 27.744 11.288 27.176 12.176 26.624C13.016 26.096 13.816 25.408 14.368 24.736L14.904 25.24C14.216 25.952 13.376 26.624 12.44 27.208C11.56 27.752 10.288 28.336 9 28.736L8.688 28.112ZM12.048 26.952L12.736 26.744V30.4C12.736 30.696 12.752 31.096 12.792 31.248H12C12.024 31.096 12.048 30.696 12.048 30.4V26.952Z" fill="white"/>
<rect x="4.5" y="0.5" width="25" height="35" rx="4.5" stroke="#1F1F1F"/>
</g>
<defs>
<filter id="filter0_d_86_91" x="0" y="0" width="34" height="44" filterUnits="userSpaceOnUse" color-interpolation-filters="sRGB">
<feFlood flood-opacity="0" result="BackgroundImageFix"/>
<feColorMatrix in="SourceAlpha" type="matrix" values="0 0 0 0 0 0 0 0 0 0 0 0 0 0 0 0 0 0 127 0" result="hardAlpha"/>
<feOffset dy="4"/>
<feGaussianBlur stdDeviation="2"/>
<feComposite in2="hardAlpha" operator="out"/>
<feColorMatrix type="matrix" values="0 0 0 0 0 0 0 0 0 0 0 0 0 0 0 0 0 0 0.25 0"/>
<feBlend mode="normal" in2="BackgroundImageFix" result="effect1_dropShadow_86_91"/>
<feBlend mode="normal" in="SourceGraphic" in2="effect1_dropShadow_86_91" result="shape"/>
</filter>
</defs>
</svg>
