<svg width="40" height="40" viewBox="0 0 40 40" fill="none" xmlns="http://www.w3.org/2000/svg">
<path d="M11.6667 22.3334C11.6667 20.4478 11.6667 19.5049 12.2525 18.9192C12.8382 18.3334 13.7811 18.3334 15.6667 18.3334H24.3333C26.219 18.3334 27.1618 18.3334 27.7476 18.9192C28.3333 19.5049 28.3333 20.4478 28.3333 22.3334V27C28.3333 30.7713 28.3333 32.6569 27.1618 33.8285C25.9902 35 24.1046 35 20.3333 35H19.6667C15.8954 35 14.0098 35 12.8382 33.8285C11.6667 32.6569 11.6667 30.7713 11.6667 27V22.3334Z" stroke="#A4A4A4" stroke-width="2"/>
<path d="M15 14C15 12.1144 15 11.1716 15.5858 10.5858C16.1716 10 17.1144 10 19 10H21C22.8856 10 23.8284 10 24.4142 10.5858C25 11.1716 25 12.1144 25 14V18.3333H15V14Z" stroke="#A4A4A4" stroke-width="2"/>
<path d="M20 18.3334V25" stroke="#A4A4A4" stroke-width="2"/>
<path d="M25 5L21.6667 10" stroke="#A4A4A4" stroke-width="2"/>
<path d="M15 5L18.3333 10" stroke="#A4A4A4" stroke-width="2"/>
<path d="M11.6667 26.6666H3.33334" stroke="#A4A4A4" stroke-width="2"/>
<path d="M36.6667 26.6666H28.3333" stroke="#A4A4A4" stroke-width="2"/>
<path d="M33.3333 15V16.6667C33.3333 18.5359 33.3333 19.4705 32.9314 20.1667C32.6681 20.6227 32.2894 21.0014 31.8333 21.2647C31.1372 21.6667 30.2026 21.6667 28.3333 21.6667V21.6667" stroke="#A4A4A4" stroke-width="2"/>
<path d="M33.3333 36.6666V36.6666C33.3333 34.7974 33.3333 33.8628 32.9314 33.1666C32.6681 32.7106 32.2894 32.3319 31.8333 32.0685C31.1372 31.6666 30.2026 31.6666 28.3333 31.6666V31.6666" stroke="#A4A4A4" stroke-width="2"/>
<path d="M6.66667 15V16.6667C6.66667 18.5359 6.66667 19.4705 7.0686 20.1667C7.3319 20.6227 7.71061 21.0014 8.16667 21.2647C8.86282 21.6667 9.79744 21.6667 11.6667 21.6667V21.6667" stroke="#A4A4A4" stroke-width="2"/>
<path d="M6.66667 36.6666V36.6666C6.66667 34.7974 6.66667 33.8628 7.0686 33.1666C7.3319 32.7106 7.71061 32.3319 8.16667 32.0685C8.86282 31.6666 9.79744 31.6666 11.6667 31.6666V31.6666" stroke="#A4A4A4" stroke-width="2"/>
</svg>
