<svg width="36" height="36" viewBox="0 0 36 36" fill="none" xmlns="http://www.w3.org/2000/svg">
<path fill-rule="evenodd" clip-rule="evenodd" d="M3.65316 15.747C5.4569 12.7592 9.94227 7 17.7186 7C25.495 7 29.9803 12.7592 31.7841 15.747C32.234 16.4923 32.459 16.8649 32.4356 17.4637C32.4122 18.0624 32.1497 18.4291 31.6248 19.1625C29.5061 22.1229 24.452 28 17.7186 28C10.9853 28 5.93111 22.1229 3.81241 19.1625C3.28749 18.4291 3.02503 18.0624 3.00165 17.4637C2.97828 16.8649 3.20324 16.4923 3.65316 15.747ZM17.7186 23.5C21.0323 23.5 23.7186 20.8137 23.7186 17.5C23.7186 14.1863 21.0323 11.5 17.7186 11.5C14.4049 11.5 11.7186 14.1863 11.7186 17.5C11.7186 20.8137 14.4049 23.5 17.7186 23.5Z" fill="#A4A4A4"/>
</svg>
