<svg width="116" height="70" viewBox="0 0 116 70" fill="none" xmlns="http://www.w3.org/2000/svg">
<g filter="url(#filter0_d_11_9)">
<rect x="4" width="108" height="62" rx="5" fill="#1E1122"/>
<path d="M85.12 16.68H97.7V17.9H85.12V16.68ZM85.12 13.48H97.7V14.72H85.12V13.48ZM84.32 19.88H98.46V21.2H84.32V19.88ZM98.14 19.88H99.66C99.66 19.88 99.64 20.32 99.62 20.54C99.32 24.76 99.04 26.4 98.48 27.02C98.12 27.4 97.74 27.54 97.18 27.58C96.66 27.62 95.64 27.62 94.62 27.56C94.6 27.16 94.44 26.56 94.22 26.16C95.2 26.28 96.14 26.28 96.5 26.28C96.86 26.28 97.04 26.24 97.2 26.08C97.62 25.66 97.88 24.14 98.14 20.12V19.88ZM90.3 22.62L91.5 22.36C92.06 23.46 92.58 24.96 92.74 25.88L91.5 26.22C91.34 25.3 90.84 23.78 90.3 22.62ZM93.54 22.32L94.64 21.88C95.36 22.7 96.1 23.84 96.42 24.6L95.26 25.1C94.96 24.34 94.22 23.16 93.54 22.32ZM86.86 22.76L88.14 22.54C88.5 23.82 88.78 25.44 88.84 26.54L87.46 26.76C87.46 25.68 87.18 24.04 86.86 22.76ZM83.98 22.06L85.3 22.42C84.92 24.3 84.3 26.26 82.94 27.44L81.72 26.66C82.98 25.6 83.66 23.8 83.98 22.06ZM90.46 10.9H91.94V20.42H90.46V10.9ZM84.32 10.18H98.4V11.5H85.78V20.5H84.32V10.18ZM84.92 42.82C84.92 45.94 84.64 50.48 82.86 53.5C82.62 53.26 81.98 52.84 81.64 52.68C83.32 49.82 83.46 45.76 83.46 42.82V36.92H84.92V42.82ZM99.86 36.92V38.26H84.2V36.92H99.86ZM92.34 35.22V37.78H90.8V35.22H92.34ZM99.36 40.32V45.36H84.38V44.1H97.92V41.58H84.38V40.32H99.36ZM94.34 51.56C94.34 52.12 94.48 52.24 95.26 52.24C95.62 52.24 97.5 52.24 97.98 52.24C98.62 52.24 98.76 51.92 98.82 50.1C99.12 50.34 99.7 50.56 100.1 50.64C99.94 52.9 99.52 53.5 98.12 53.5C97.74 53.5 95.46 53.5 95.1 53.5C93.34 53.5 92.9 53.08 92.9 51.56V45.82H94.34V51.56ZM99.42 47.62C97.94 48.4 95.82 49.1 93.98 49.56C93.9 49.28 93.7 48.82 93.52 48.52C95.24 48.02 97.22 47.28 98.28 46.6L99.42 47.62ZM84.56 52.14C86.44 51.92 89.32 51.52 92.14 51.1L92.2 52.34C89.54 52.78 86.74 53.2 84.74 53.5L84.56 52.14ZM87.96 45.8V52.56H86.54V45.8H87.96ZM91.94 47.68V48.94H87.2V47.68H91.94ZM94.44 38V44.7H93.02V38H94.44ZM89.54 38V44.7H88.14V38H89.54Z" fill="white"/>
<path d="M26.14 23.28C26.1 23.74 26.06 24.42 26.04 24.9C25.78 33.06 23.58 36.8 19.64 39.54L18.18 38.36C18.82 38.02 19.62 37.46 20.22 36.9C22.72 34.64 24.36 31.26 24.4 24.94C24.4 24.48 24.36 23.74 24.28 23.28H26.14ZM33.1 27.44C33.04 27.78 33 28.14 32.98 28.4C32.92 30.34 32.66 36.14 31.76 38.06C31.36 38.92 30.72 39.28 29.62 39.28C28.62 39.28 27.46 39.22 26.42 39.14L26.22 37.48C27.3 37.62 28.34 37.72 29.2 37.72C29.76 37.72 30.14 37.54 30.36 37.06C31.12 35.52 31.38 30.6 31.38 28.46H20.84C20.04 28.46 19.24 28.48 18.52 28.54V26.86C19.22 26.92 20.04 26.96 20.82 26.96H30.7C31.24 26.96 31.62 26.92 31.96 26.86L33.1 27.44ZM53.3 25.66C53.2 25.86 53.06 26.4 53.04 26.6C52.68 28.96 52.26 31.82 50.8 34.08C49.18 36.62 46.46 38.66 43.24 39.7L41.88 38.34C44.82 37.54 47.68 35.8 49.3 33.24C50.44 31.48 51 28.92 51.2 26.56C50.08 26.56 41.6 26.56 40.18 26.56C40.18 27.12 40.18 29.92 40.18 30.56C40.18 30.84 40.18 31.34 40.22 31.84H38.42C38.46 31.36 38.48 30.94 38.48 30.56C38.48 29.92 38.48 27.14 38.48 26.28C38.48 25.82 38.46 25.38 38.42 24.96C38.94 25 39.68 25 40.54 25C41.22 25 49.68 25 50.82 25C51.24 25 51.72 24.98 52.08 24.9L53.3 25.66ZM57.28 31.78C60.74 30.86 63.78 29.44 66 28.06C68.1 26.74 70.1 25.02 71.48 23.34L72.82 24.6C71.1 26.38 69 28.06 66.66 29.52C64.46 30.88 61.28 32.34 58.06 33.34L57.28 31.78ZM65.68 28.88L67.4 28.36V37.5C67.4 38.24 67.44 39.24 67.54 39.62H65.56C65.62 39.24 65.68 38.24 65.68 37.5V28.88Z" fill="white"/>
<rect x="4.5" y="0.5" width="107" height="61" rx="4.5" stroke="#1F1F1F"/>
</g>
<defs>
<filter id="filter0_d_11_9" x="0" y="0" width="116" height="70" filterUnits="userSpaceOnUse" color-interpolation-filters="sRGB">
<feFlood flood-opacity="0" result="BackgroundImageFix"/>
<feColorMatrix in="SourceAlpha" type="matrix" values="0 0 0 0 0 0 0 0 0 0 0 0 0 0 0 0 0 0 127 0" result="hardAlpha"/>
<feOffset dy="4"/>
<feGaussianBlur stdDeviation="2"/>
<feComposite in2="hardAlpha" operator="out"/>
<feColorMatrix type="matrix" values="0 0 0 0 0 0 0 0 0 0 0 0 0 0 0 0 0 0 0.25 0"/>
<feBlend mode="normal" in2="BackgroundImageFix" result="effect1_dropShadow_11_9"/>
<feBlend mode="normal" in="SourceGraphic" in2="effect1_dropShadow_11_9" result="shape"/>
</filter>
</defs>
</svg>
