<svg width="48" height="59" viewBox="0 0 48 59" fill="none" xmlns="http://www.w3.org/2000/svg">
<g filter="url(#filter0_d_74_88)">
<rect x="4" width="40" height="51" rx="5" fill="#1E1122"/>
<path d="M27.472 16.408H35.02V17.14H27.472V16.408ZM27.472 14.488H35.02V15.232H27.472V14.488ZM26.992 18.328H35.476V19.12H26.992V18.328ZM35.284 18.328H36.196C36.196 18.328 36.184 18.592 36.172 18.724C35.992 21.256 35.824 22.24 35.488 22.612C35.272 22.84 35.044 22.924 34.708 22.948C34.396 22.972 33.784 22.972 33.172 22.936C33.16 22.696 33.064 22.336 32.932 22.096C33.52 22.168 34.084 22.168 34.3 22.168C34.516 22.168 34.624 22.144 34.72 22.048C34.972 21.796 35.128 20.884 35.284 18.472V18.328ZM30.58 19.972L31.3 19.816C31.636 20.476 31.948 21.376 32.044 21.928L31.3 22.132C31.204 21.58 30.904 20.668 30.58 19.972ZM32.524 19.792L33.184 19.528C33.616 20.02 34.06 20.704 34.252 21.16L33.556 21.46C33.376 21.004 32.932 20.296 32.524 19.792ZM28.516 20.056L29.284 19.924C29.5 20.692 29.668 21.664 29.704 22.324L28.876 22.456C28.876 21.808 28.708 20.824 28.516 20.056ZM26.788 19.636L27.58 19.852C27.352 20.98 26.98 22.156 26.164 22.864L25.432 22.396C26.188 21.76 26.596 20.68 26.788 19.636ZM30.676 12.94H31.564V18.652H30.676V12.94ZM26.992 12.508H35.44V13.3H27.868V18.7H26.992V12.508ZM27.352 32.492C27.352 34.364 27.184 37.088 26.116 38.9C25.972 38.756 25.588 38.504 25.384 38.408C26.392 36.692 26.476 34.256 26.476 32.492V28.952H27.352V32.492ZM36.316 28.952V29.756H26.92V28.952H36.316ZM31.804 27.932V29.468H30.88V27.932H31.804ZM36.016 30.992V34.016H27.028V33.26H35.152V31.748H27.028V30.992H36.016ZM33.004 37.736C33.004 38.072 33.088 38.144 33.556 38.144C33.772 38.144 34.9 38.144 35.188 38.144C35.572 38.144 35.656 37.952 35.692 36.86C35.872 37.004 36.22 37.136 36.46 37.184C36.364 38.54 36.112 38.9 35.272 38.9C35.044 38.9 33.676 38.9 33.46 38.9C32.404 38.9 32.14 38.648 32.14 37.736V34.292H33.004V37.736ZM36.052 35.372C35.164 35.84 33.892 36.26 32.788 36.536C32.74 36.368 32.62 36.092 32.512 35.912C33.544 35.612 34.732 35.168 35.368 34.76L36.052 35.372ZM27.136 38.084C28.264 37.952 29.992 37.712 31.684 37.46L31.72 38.204C30.124 38.468 28.444 38.72 27.244 38.9L27.136 38.084ZM29.176 34.28V38.336H28.324V34.28H29.176ZM31.564 35.408V36.164H28.72V35.408H31.564ZM33.064 29.6V33.62H32.212V29.6H33.064ZM30.124 29.6V33.62H29.284V29.6H30.124Z" fill="white"/>
<path d="M17.084 5.568C17.06 5.844 17.036 6.252 17.024 6.54C16.868 11.436 15.548 13.68 13.184 15.324L12.308 14.616C12.692 14.412 13.172 14.076 13.532 13.74C15.032 12.384 16.016 10.356 16.04 6.564C16.04 6.288 16.016 5.844 15.968 5.568H17.084ZM21.26 8.064C21.224 8.268 21.2 8.484 21.188 8.64C21.152 9.804 20.996 13.284 20.456 14.436C20.216 14.952 19.832 15.168 19.172 15.168C18.572 15.168 17.876 15.132 17.252 15.084L17.132 14.088C17.78 14.172 18.404 14.232 18.92 14.232C19.256 14.232 19.484 14.124 19.616 13.836C20.072 12.912 20.228 9.96 20.228 8.676H13.904C13.424 8.676 12.944 8.688 12.512 8.724V7.716C12.932 7.752 13.424 7.776 13.892 7.776H19.82C20.144 7.776 20.372 7.752 20.576 7.716L21.26 8.064ZM21.512 21.996C21.452 22.116 21.368 22.44 21.356 22.56C21.14 23.976 20.888 25.692 20.012 27.048C19.04 28.572 17.408 29.796 15.476 30.42L14.66 29.604C16.424 29.124 18.14 28.08 19.112 26.544C19.796 25.488 20.132 23.952 20.252 22.536C19.58 22.536 14.492 22.536 13.64 22.536C13.64 22.872 13.64 24.552 13.64 24.936C13.64 25.104 13.64 25.404 13.664 25.704H12.584C12.608 25.416 12.62 25.164 12.62 24.936C12.62 24.552 12.62 22.884 12.62 22.368C12.62 22.092 12.608 21.828 12.584 21.576C12.896 21.6 13.34 21.6 13.856 21.6C14.264 21.6 19.34 21.6 20.024 21.6C20.276 21.6 20.564 21.588 20.78 21.54L21.512 21.996ZM12.032 40.668C14.108 40.116 15.932 39.264 17.264 38.436C18.524 37.644 19.724 36.612 20.552 35.604L21.356 36.36C20.324 37.428 19.064 38.436 17.66 39.312C16.34 40.128 14.432 41.004 12.5 41.604L12.032 40.668ZM17.072 38.928L18.104 38.616V44.1C18.104 44.544 18.128 45.144 18.188 45.372H17C17.036 45.144 17.072 44.544 17.072 44.1V38.928Z" fill="white"/>
<rect x="4.5" y="0.5" width="39" height="50" rx="4.5" stroke="#1F1F1F"/>
</g>
<defs>
<filter id="filter0_d_74_88" x="0" y="0" width="48" height="59" filterUnits="userSpaceOnUse" color-interpolation-filters="sRGB">
<feFlood flood-opacity="0" result="BackgroundImageFix"/>
<feColorMatrix in="SourceAlpha" type="matrix" values="0 0 0 0 0 0 0 0 0 0 0 0 0 0 0 0 0 0 127 0" result="hardAlpha"/>
<feOffset dy="4"/>
<feGaussianBlur stdDeviation="2"/>
<feComposite in2="hardAlpha" operator="out"/>
<feColorMatrix type="matrix" values="0 0 0 0 0 0 0 0 0 0 0 0 0 0 0 0 0 0 0.25 0"/>
<feBlend mode="normal" in2="BackgroundImageFix" result="effect1_dropShadow_74_88"/>
<feBlend mode="normal" in="SourceGraphic" in2="effect1_dropShadow_74_88" result="shape"/>
</filter>
</defs>
</svg>
