<svg width="52" height="52" viewBox="0 0 52 52" fill="none" xmlns="http://www.w3.org/2000/svg">
<path d="M23.2741 35.3473C25.8694 35.3473 28.3015 34.5638 30.3255 33.2254L37.4747 40.391C37.9481 40.848 38.552 41.0765 39.2049 41.0765C40.5597 41.0765 41.5554 40.0156 41.5554 38.6771C41.5554 38.0569 41.3432 37.4529 40.8862 36.9959L33.7858 29.8629C35.2549 27.7737 36.12 25.2437 36.12 22.5015C36.12 15.4338 30.3418 9.65564 23.2741 9.65564C16.2228 9.65564 10.4283 15.4338 10.4283 22.5015C10.4283 29.5691 16.2065 35.3473 23.2741 35.3473ZM23.2741 31.9196C18.0999 31.9196 13.856 27.6757 13.856 22.5015C13.856 17.3272 18.0999 13.0834 23.2741 13.0834C28.4484 13.0834 32.6922 17.3272 32.6922 22.5015C32.6922 27.6757 28.4484 31.9196 23.2741 31.9196Z" fill="#A4A4A4"/>
</svg>
