<svg width="56" height="56" viewBox="0 0 56 56" fill="none" xmlns="http://www.w3.org/2000/svg">
<path fill-rule="evenodd" clip-rule="evenodd" d="M32.8466 6.4676V6.46762L33.2675 10.6771C33.4309 12.3106 33.5126 13.1274 34.0654 13.3563C34.6182 13.5853 35.2535 13.0655 36.5241 12.026L39.7982 9.34713C40.464 8.80241 40.7969 8.53006 41.1817 8.54925C41.5665 8.56845 41.8707 8.87257 42.4789 9.48083L46.5189 13.5208C47.1271 14.1291 47.4313 14.4332 47.4505 14.818C47.4697 15.2029 47.1973 15.5357 46.6526 16.2015L43.9737 19.4757C42.9341 20.7463 42.4143 21.3816 42.6433 21.9344C42.8723 22.4872 43.6891 22.5689 45.3226 22.7322L49.5322 23.1532C50.3881 23.2388 50.8161 23.2816 51.0746 23.5673C51.3332 23.853 51.3332 24.2831 51.3332 25.1433V30.8567C51.3332 31.7169 51.3332 32.147 51.0746 32.4326C50.8161 32.7183 50.3881 32.7611 49.5322 32.8467L45.3235 33.2676C43.69 33.4309 42.8732 33.5126 42.6442 34.0654C42.4152 34.6183 42.935 35.2535 43.9746 36.5241L46.6527 39.7974C47.1974 40.4632 47.4698 40.796 47.4506 41.1809C47.4314 41.5657 47.1273 41.8698 46.519 42.4781L42.479 46.5181C41.8708 47.1263 41.5667 47.4304 41.1818 47.4496C40.797 47.4688 40.4641 47.1965 39.7983 46.6518L36.5242 43.9729C35.2536 42.9333 34.6183 42.4136 34.0655 42.6425C33.5127 42.8715 33.431 43.6883 33.2677 45.3218L32.8466 49.5323C32.761 50.3882 32.7182 50.8162 32.4325 51.0747C32.1468 51.3333 31.7167 51.3333 30.8565 51.3333H25.1431C24.2829 51.3333 23.8528 51.3333 23.5672 51.0747C23.2815 50.8162 23.2387 50.3882 23.1531 49.5323L22.7321 45.3227C22.5688 43.6892 22.4871 42.8724 21.9343 42.6435C21.3815 42.4145 20.7462 42.9343 19.4756 43.9738L16.2013 46.6528C15.5355 47.1975 15.2026 47.4699 14.8178 47.4507C14.433 47.4315 14.1288 47.1274 13.5206 46.5191L9.4806 42.4791C8.87234 41.8709 8.56822 41.5668 8.54902 41.1819C8.52983 40.7971 8.80219 40.4642 9.3469 39.7985L12.0258 36.5242C13.0654 35.2536 13.5852 34.6183 13.3562 34.0655C13.1272 33.5127 12.3105 33.431 10.6769 33.2677L6.4675 32.8467H6.46748C5.61156 32.7611 5.1836 32.7183 4.92505 32.4326C4.6665 32.1469 4.6665 31.7169 4.6665 30.8566L4.6665 25.1433C4.6665 24.2831 4.6665 23.853 4.92505 23.5673C5.1836 23.2816 5.61156 23.2388 6.46748 23.1532H6.4675L10.6778 22.7322C12.3113 22.5688 13.1281 22.4871 13.3571 21.9343C13.5861 21.3815 13.0663 20.7462 12.0267 19.4756L12.0267 19.4756L9.34701 16.2004C8.8023 15.5347 8.52994 15.2018 8.54913 14.817C8.56833 14.4321 8.87246 14.128 9.48071 13.5197L13.5207 9.47977C14.1289 8.87152 14.4331 8.56739 14.8179 8.5482C15.2027 8.529 15.5356 8.80136 16.2014 9.34607L19.4757 12.025L19.4757 12.025C20.7463 13.0646 21.3816 13.5844 21.9344 13.3554C22.4872 13.1264 22.5689 12.3097 22.7322 10.6761L23.1531 6.46762V6.4676C23.2387 5.61168 23.2815 5.18372 23.5672 4.92517C23.8528 4.66663 24.2829 4.66663 25.1431 4.66663H30.8565C31.7167 4.66663 32.1468 4.66663 32.4325 4.92517C32.7182 5.18372 32.761 5.61168 32.8466 6.4676ZM27.9998 37.3333C33.1545 37.3333 37.3332 33.1546 37.3332 28C37.3332 22.8453 33.1545 18.6666 27.9998 18.6666C22.8452 18.6666 18.6665 22.8453 18.6665 28C18.6665 33.1546 22.8452 37.3333 27.9998 37.3333Z" fill="#A4A4A4"/>
</svg>
