<svg width="40" height="40" viewBox="0 0 40 40" fill="none" xmlns="http://www.w3.org/2000/svg">
<path d="M16.9086 12.223C17.9788 9.55524 18.5138 8.22133 19.3831 8.03646C19.6117 7.98785 19.8479 7.98785 20.0765 8.03646C20.9458 8.22133 21.4809 9.55524 22.551 12.223C23.1596 13.7402 23.4638 14.4987 24.0332 15.0147C24.1929 15.1594 24.3662 15.2883 24.5508 15.3995C25.2089 15.7962 26.0304 15.8697 27.6733 16.0169C30.4546 16.266 31.8453 16.3905 32.2699 17.1834C32.3579 17.3476 32.4177 17.5254 32.4468 17.7094C32.5876 18.5978 31.5653 19.5279 29.5206 21.3881L28.9529 21.9047C27.997 22.7744 27.519 23.2092 27.2425 23.7519C27.0767 24.0774 26.9655 24.428 26.9134 24.7896C26.8266 25.3924 26.9665 26.0232 27.2464 27.2848L27.3465 27.7356C27.8484 29.9982 28.0994 31.1294 27.7861 31.6855C27.5047 32.185 26.9863 32.5048 26.4136 32.5321C25.7761 32.5626 24.8778 31.8306 23.0811 30.3666C21.8974 29.402 21.3056 28.9198 20.6486 28.7314C20.0482 28.5592 19.4115 28.5592 18.8111 28.7314C18.154 28.9198 17.5622 29.402 16.3785 30.3666C14.5819 31.8306 13.6836 32.5626 13.046 32.5321C12.4734 32.5048 11.955 32.185 11.6735 31.6855C11.3602 31.1294 11.6112 29.9982 12.1132 27.7356L12.2132 27.2848C12.4931 26.0232 12.6331 25.3924 12.5462 24.7896C12.4941 24.428 12.3829 24.0774 12.2171 23.7519C11.9406 23.2092 11.4627 22.7744 10.5068 21.9047L9.939 21.3881C7.89435 19.5279 6.87202 18.5978 7.01281 17.7094C7.04197 17.5254 7.10177 17.3476 7.18972 17.1834C7.61439 16.3905 9.00502 16.266 11.7863 16.0169C13.4293 15.8697 14.2508 15.7962 14.9088 15.3995C15.0934 15.2883 15.2668 15.1594 15.4265 15.0147C15.9958 14.4987 16.3001 13.7402 16.9086 12.223Z" fill="#A4A4A4" stroke="#A4A4A4" stroke-width="2"/>
</svg>
